<svg width="17" height="20" viewBox="0 0 17 20" fill="none" xmlns="http://www.w3.org/2000/svg">
<path d="M15.6564 0.979748C15.3128 0.733652 14.9242 0.557649 14.5126 0.461791C14.1009 0.365934 13.6745 0.3521 13.2575 0.421079C12.8406 0.490058 12.4413 0.6405 12.0825 0.863811C11.7237 1.08712 11.4124 1.37893 11.1664 1.72256L3.04694 13.0579C2.86218 13.3026 2.72828 13.5819 2.65313 13.8792C2.57797 14.1766 2.56309 14.4859 2.60934 14.7891C2.6556 15.0923 2.76207 15.3831 2.92247 15.6445C3.08288 15.9059 3.29397 16.1326 3.54332 16.3111C3.79267 16.4897 4.07524 16.6165 4.37436 16.6841C4.67349 16.7518 4.98313 16.7589 5.28505 16.705C5.58696 16.6512 5.87504 16.5374 6.13232 16.3705C6.38959 16.2036 6.61086 15.9869 6.78308 15.7331L12.516 7.73036L11.7686 7.19439L6.03658 15.199C5.82377 15.4962 5.50164 15.6968 5.14101 15.7566C4.78037 15.8164 4.41074 15.7306 4.11335 15.518C3.96606 15.4124 3.84101 15.2789 3.74535 15.125C3.64969 14.9712 3.58529 14.7999 3.55583 14.6212C3.52638 14.4424 3.53245 14.2595 3.57369 14.0831C3.61493 13.9067 3.69053 13.7401 3.79619 13.5929L11.9138 2.25761H11.9157L11.9138 2.25577C12.2698 1.76106 12.8073 1.42757 13.4087 1.32832C14.01 1.22907 14.6262 1.37215 15.1223 1.72624C15.617 2.08223 15.9505 2.61975 16.0497 3.22109C16.149 3.82244 16.0059 4.43861 15.6518 4.93469V4.93285L6.75274 17.3585C6.25526 18.0515 5.50328 18.5191 4.66164 18.6587C3.81999 18.7983 2.95734 18.5985 2.26275 18.1031C1.56978 17.605 1.10256 16.8525 0.96349 16.0105C0.824422 15.1685 1.02486 14.3057 1.52086 13.6113L7.98831 4.58167L7.2409 4.04662L0.773444 13.0762C0.457081 13.5178 0.230847 14.0174 0.107676 14.5465C-0.0154957 15.0756 -0.0331908 15.6238 0.0556024 16.1597C0.144396 16.6956 0.337936 17.2088 0.625161 17.6698C0.912386 18.1309 1.28766 18.5309 1.72954 18.8468C2.17087 19.1635 2.6703 19.3901 3.19925 19.5136C3.72821 19.6371 4.27632 19.6552 4.81226 19.5667C5.34819 19.4783 5.86144 19.2851 6.32265 18.9981C6.78386 18.7112 7.18399 18.3361 7.50015 17.8944L16.3992 5.46882C16.8958 4.77478 17.0963 3.91192 16.9566 3.07006C16.817 2.2282 16.3486 1.47629 15.6546 0.979748H15.6564Z" fill="#189DED"/>
</svg>
